<svg width="24" height="25" viewBox="0 0 24 25" fill="none" xmlns="http://www.w3.org/2000/svg">
          <path
            d="M9.56988 5.98092C9.75988 5.98092 9.94988 6.04973 10.0999 6.19717C10.3899 6.48223 10.3899 6.95405 10.0999 7.2391L4.55988 12.6847L10.0999 18.1303C10.3899 18.4153 10.3899 18.8871 10.0999 19.1722C9.80988 19.4573 9.32988 19.4573 9.03988 19.1722L2.96988 13.2056C2.67988 12.9206 2.67988 12.4488 2.96988 12.1637L9.03988 6.19717C9.18988 6.04973 9.37988 5.98092 9.56988 5.98092Z"
            fill="#2C2C2C" />
          <path
            d="M3.67 11.9474L20.5 11.9474C20.91 11.9474 21.25 12.2816 21.25 12.6847C21.25 13.0877 20.91 13.4219 20.5 13.4219L3.67 13.4219C3.26 13.4219 2.92 13.0877 2.92 12.6847C2.92 12.2816 3.26 11.9474 3.67 11.9474Z"
            fill="#2C2C2C" />
        </svg>