<svg width="19" height="19" viewBox="0 0 19 19" fill="none" xmlns="http://www.w3.org/2000/svg">
                <path
                  fill-rule="evenodd"
                  clip-rule="evenodd"
                  d="M8.68691 0.636876C9.13601 0.187773 9.86415 0.187773 10.3133 0.636876L18.3633 8.68688C18.6922 9.01577 18.7905 9.51041 18.6125 9.94013C18.4345 10.3699 18.0152 10.65 17.5501 10.65H16.4001V17.55C16.4001 18.1852 15.8852 18.7 15.2501 18.7H12.9501C12.315 18.7 11.8001 18.1852 11.8001 17.55V14.1C11.8001 13.4649 11.2852 12.95 10.6501 12.95H8.35008C7.71495 12.95 7.20008 13.4649 7.20008 14.1V17.55C7.20008 18.1852 6.68521 18.7 6.05008 18.7H3.75008C3.11495 18.7 2.60008 18.1852 2.60008 17.55V10.65H1.45008C0.984951 10.65 0.565619 10.3699 0.387621 9.94013C0.209623 9.51041 0.308012 9.01577 0.63691 8.68688L8.68691 0.636876Z"
                  fill="#8A8A8A" />
              </svg>