<svg width="25" height="26" viewBox="0 0 25 26" fill="none" xmlns="http://www.w3.org/2000/svg">
<g clip-path="url(#clip0_1_2578)">
<path d="M20.3125 15.4753H18.2292C17.6539 15.4753 17.1875 15.9417 17.1875 16.517V23.8087C17.1875 24.384 17.6539 24.8503 18.2292 24.8503H20.3125C20.8878 24.8503 21.3542 24.384 21.3542 23.8087V16.517C21.3542 15.9417 20.8878 15.4753 20.3125 15.4753Z" fill="white"/>
<path d="M23.4375 17.0378H22.3959V23.2878H23.4375C23.7138 23.2878 23.9788 23.1781 24.1741 22.9827C24.3695 22.7874 24.4792 22.5224 24.4792 22.2462V18.0795C24.4792 17.8032 24.3695 17.5383 24.1741 17.3429C23.9788 17.1476 23.7138 17.0378 23.4375 17.0378Z" fill="white"/>
<path d="M6.77088 15.4753H4.68754C4.11224 15.4753 3.64587 15.9417 3.64587 16.517V23.8087C3.64587 24.384 4.11224 24.8503 4.68754 24.8503H6.77088C7.34617 24.8503 7.81254 24.384 7.81254 23.8087V16.517C7.81254 15.9417 7.34617 15.4753 6.77088 15.4753Z" fill="white"/>
<path d="M0.520874 18.0796V22.2463C0.520874 22.5225 0.630621 22.7875 0.825971 22.9828C1.02132 23.1782 1.28627 23.2879 1.56254 23.2879H2.60421V17.0379H1.56254C1.28627 17.0379 1.02132 17.1477 0.825971 17.343C0.630621 17.5384 0.520874 17.8033 0.520874 18.0796ZM19.4636 10.7098C19.604 11.163 19.8479 11.5772 20.176 11.9198C20.5042 12.2624 20.9075 12.524 21.3542 12.6838C21.3542 10.3355 20.4214 8.08339 18.7609 6.42292C17.1004 4.76244 14.8483 3.82959 12.5 3.82959C10.1518 3.82959 7.89968 4.76244 6.2392 6.42292C4.57872 8.08339 3.64587 10.3355 3.64587 12.6838C4.09159 12.5233 4.49392 12.2614 4.82112 11.9189C5.14832 11.5763 5.39144 11.1624 5.53129 10.7098C7.65629 3.87647 17.3646 3.90251 19.4636 10.7098Z" fill="white"/>
<path d="M20.9688 4.40249C13.474 -3.09229 0.520874 2.19937 0.520874 12.8712V16.2775C1.14067 15.9233 1.599 15.9962 2.60421 15.9962C2.60421 12.6942 2.16671 9.22541 5.50525 5.87645C11.6719 -0.305837 22.3959 4.01708 22.3959 12.8712V15.9962C23.4063 15.9962 23.8698 15.9285 24.4792 16.2775C24.4792 12.6421 25 8.4077 20.9688 4.40249Z" fill="white"/>
</g>
<defs>
<clipPath id="clip0_1_2578">
<rect width="25" height="25" fill="white" transform="translate(0 0.371216)"/>
</clipPath>
</defs>
</svg>
