<svg width="22" height="19" viewBox="0 0 22 19" fill="none" xmlns="http://www.w3.org/2000/svg">
<path d="M10.645 18.4107L10.6384 18.4071L10.6158 18.3949C10.5965 18.3844 10.5689 18.3693 10.5336 18.3496C10.4629 18.3101 10.3612 18.2524 10.233 18.1769C9.9765 18.0261 9.61317 17.8039 9.17855 17.515C8.31074 16.9381 7.15122 16.0901 5.9886 15.0063C3.68781 12.8615 1.25 9.6751 1.25 5.75C1.25 2.82194 3.7136 0.5 6.6875 0.5C8.43638 0.5 10.0023 1.29909 11 2.5516C11.9977 1.29909 13.5636 0.5 15.3125 0.5C18.2864 0.5 20.75 2.82194 20.75 5.75C20.75 9.6751 18.3122 12.8615 16.0114 15.0063C14.8488 16.0901 13.6893 16.9381 12.8215 17.515C12.3868 17.8039 12.0235 18.0261 11.767 18.1769C11.6388 18.2524 11.5371 18.3101 11.4664 18.3496C11.4311 18.3693 11.4035 18.3844 11.3842 18.3949L11.3616 18.4071L11.355 18.4107L11.3523 18.4121C11.1323 18.5289 10.8677 18.5289 10.6477 18.4121L10.645 18.4107Z" stroke="#B6B6B6" stroke-linejoin="round"/>
</svg>
